<svg width="30" height="26" viewBox="0 0 30 26" fill="none" xmlns="http://www.w3.org/2000/svg">
<path fill-rule="evenodd" clip-rule="evenodd" d="M29 1H1V19H29V1ZM1 0C0.447715 0 0 0.447716 0 1V19C0 19.5523 0.447716 20 1 20H29C29.5523 20 30 19.5523 30 19V1C30 0.447715 29.5523 0 29 0H1Z" fill="#29A19C"/>
<rect x="10" y="14" width="20" height="6" rx="1" fill="#29A19C"/>
<path fill-rule="evenodd" clip-rule="evenodd" d="M15 4.29289L21 10.2929L24 7.29289L27.3536 10.6464L26.6465 11.3536L24 8.70711L21 11.7071L15 5.70711L11 9.70711L8.50004 7.20711L3.85359 11.8536L3.14648 11.1464L8.50004 5.79289L11 8.29289L15 4.29289Z" fill="#A3F7BF"/>
<path fill-rule="evenodd" clip-rule="evenodd" d="M15.234 4.85957L14.8127 5.27495L14.9532 5.41736L15.234 5.14044L15.4759 5.3789L15.6163 5.23649L15.234 4.85957ZM16.1 5.99429L16.7241 6.60967L16.8645 6.46726L16.2404 5.85187L16.1 5.99429ZM13.5489 6.80198L14.251 6.10967L14.1106 5.96726L13.4085 6.65956L13.5489 6.80198ZM21.3191 6.24418L20.9564 6.60187L21.0968 6.74429L21.3191 6.52505L21.639 6.84044L21.7794 6.69803L21.3191 6.24418ZM17.3482 7.22505L17.9723 7.84044L18.1127 7.69803L17.4886 7.08264L17.3482 7.22505ZM19.9266 7.89813L20.5117 7.32121L20.3713 7.17879L19.7862 7.75572L19.9266 7.89813ZM12.1447 8.18659L12.8468 7.49429L12.7064 7.35187L12.0042 8.04418L12.1447 8.18659ZM22.4191 7.60967L23.1993 8.3789L23.3397 8.23649L22.5596 7.46726L22.4191 7.60967ZM6.80849 7.6288L6.38721 8.04418L6.52764 8.18659L6.80849 7.90967L7.08934 8.18659L7.22976 8.04418L6.80849 7.6288ZM18.5964 8.45582L18.9787 8.83275L19.3415 8.47505L19.201 8.33264L18.9787 8.55187L18.7369 8.31341L18.5964 8.45582ZM10.7404 9.57121L11.4425 8.8789L11.3021 8.73649L10.6 9.42879L10.7404 9.57121ZM7.79147 8.8789L8.4936 9.57121L8.63402 9.42879L7.93189 8.73649L7.79147 8.8789ZM5.12338 9.57121L5.82551 8.8789L5.68509 8.73649L4.98296 9.42879L5.12338 9.57121ZM23.9794 9.14813L24.7596 9.91736L24.9 9.77495L24.1198 9.00572L23.9794 9.14813ZM10.0383 10.2635L9.89785 10.1211L9.617 10.398L9.33615 10.1211L9.19572 10.2635L9.617 10.6789L10.0383 10.2635ZM4.07019 10.6097L4.42125 10.2635L4.28083 10.1211L3.92977 10.4673L4.07019 10.6097ZM25.5397 10.6866L25.9298 11.0712L26.0702 10.9288L25.6801 10.5442L25.5397 10.6866Z" fill="#A3F7BF"/>
<rect x="12" y="16" width="2" height="2" rx="1" fill="#A3F7BF"/>
<rect x="15" y="16" width="13" height="2" rx="1" fill="#A3F7BF"/>
<path fill-rule="evenodd" clip-rule="evenodd" d="M9.79424 23.2078C10.3199 22.4778 10.5 21.5867 10.5 21H11.5C11.5 21.7467 11.2801 22.8556 10.6058 23.7922C10.4227 24.0465 10.2076 24.2857 9.95767 24.5H21.5673C20.6741 23.7982 20 22.6761 20 21H21C21 22.437 21.5876 23.2869 22.2922 23.7942C23.0222 24.3199 23.9134 24.5 24.5 24.5V25.5H6.51862L6.51855 24.5H7.00001C8.43705 24.5 9.28694 23.9124 9.79424 23.2078Z" fill="#A3F7BF"/>
</svg>
